<svg width="24" height="24" viewBox="0 0 24 24" fill="none" xmlns="http://www.w3.org/2000/svg">
    <path fill-rule="evenodd" clip-rule="evenodd" d="M12 2.25C6.615 2.25 2.25 6.725 2.25 12.245C2.25 16.662 5.044 20.406 8.921 21.729C9.408 21.821 9.586 21.512 9.586 21.249C9.586 21.013 9.578 20.385 9.573 19.553C6.859 20.158 6.287 18.212 6.287 18.212C5.843 17.056 5.203 16.748 5.203 16.748C4.317 16.127 5.27 16.14 5.27 16.14C6.25 16.211 6.765 17.172 6.765 17.172C7.635 18.702 9.048 18.261 9.604 18.005C9.693 17.359 9.945 16.918 10.224 16.668C8.058 16.416 5.781 15.558 5.781 11.728C5.781 10.637 6.161 9.745 6.786 9.047C6.686 8.794 6.35 7.777 6.882 6.402C6.882 6.402 7.702 6.133 9.565 7.426C10.343 7.204 11.178 7.092 12 7.088C12.822 7.092 13.657 7.204 14.436 7.426C16.298 6.133 17.116 6.402 17.116 6.402C17.65 7.777 17.314 8.794 17.214 9.047C17.84 9.745 18.218 10.637 18.218 11.728C18.218 15.568 15.938 16.413 13.765 16.661C14.115 16.97 14.427 17.58 14.427 18.512C14.427 19.848 14.415 20.926 14.415 21.249C14.415 21.514 14.59 21.826 15.086 21.728C18.959 20.402 21.75 16.661 21.75 12.245C21.75 6.725 17.385 2.25 12 2.25Z" fill="#C96F04"/>
</svg>
